Coordinates
version=1
nRows=19
nColumns=34
inDegrees=yes

Units are S.I. units (second, meters, Newtons, ...)
If the header above contains a line with 'inDegrees', this indicates whether rotational values are in degrees (yes) or radians (no).

endheader
time	pelvis_tilt	pelvis_list	pelvis_rotation	pelvis_tx	pelvis_ty	pelvis_tz	hip_flexion_r	hip_adduction_r	hip_rotation_r	knee_angle_r	ankle_angle_r	subtalar_angle_r	mtp_angle_r	hip_flexion_l	hip_adduction_l	hip_rotation_l	knee_angle_l	ankle_angle_l	subtalar_angle_l	mtp_angle_l	lumbar_extension	lumbar_bending	lumbar_rotation	arm_flex_r	arm_add_r	arm_rot_r	elbow_flex_r	pro_sup_r	arm_flex_l	arm_add_l	arm_rot_l	elbow_flex_l	pro_sup_l
      0.00000000	     -5.42940803	     -1.07195619	     -0.42085039	      0.58803809	      0.91182560	     -0.16744150	      9.04649082	     -3.57491523	     -4.04338400	      8.75771329	      4.36352688	     -1.38160909	      0.00000000	      8.27879667	     -6.89027487	     -3.62626613	      4.78079869	      5.39577925	      6.36391512	      0.00000000	     -1.60155292	      3.07498633	     -2.49944718	    176.01942155	    -25.03138966	    107.16747924	     28.99292931	     34.56451526	    180.51872416	    -32.76653093	    113.63399085	     26.86477956	     36.71727844
      0.01666670	     -7.07854089	     -0.53903531	     -1.01143528	      0.59580289	      0.91267186	     -0.16529764	     10.47534754	     -4.04573387	     -4.68246140	      8.29200317	      6.93979168	      2.07980116	      0.00000000	      8.71284388	     -6.32950726	     -4.90815082	      3.07434534	      4.35005706	      8.80784023	      0.00000000	      1.46306352	      1.46326220	     -1.04103400	    174.36598083	    -28.87911058	    101.69407788	     33.58947886	     38.86408729	    178.03404091	    -29.42474124	    120.20733975	     20.12062203	     42.57357141
      0.03333330	     -8.12442497	     -0.12043583	     -1.72118103	      0.60109873	      0.91420177	     -0.16371825	     11.10828378	     -4.22959867	     -5.06235020	      7.66556259	      5.40062738	      1.47350725	      0.00000000	      9.22485742	     -6.04967630	     -6.26826213	      2.55827293	      3.69172771	      9.61979107	      0.00000000	      2.96749530	      0.98715202	     -0.71174979	    175.16752835	    -30.27639246	    100.87853244	     36.40682828	     42.68722029	    180.08351525	    -31.42087484	    121.76498318	     24.99253439	     44.40291297
      0.05000000	     -8.15441115	      0.11327624	     -2.17530738	      0.60477451	      0.91203131	     -0.16376882	     10.67284321	     -4.42328471	     -5.19073121	      7.09645721	      4.79188693	      1.97863313	      0.00000000	      8.61242910	     -5.80233559	     -6.50027154	      1.80419360	      3.15255025	      9.84989995	      0.00000000	      3.58610703	      0.72065573	     -0.71541539	    174.97121842	    -30.33721396	    100.99009308	     36.59116785	     43.11720504	    180.40016609	    -31.72011186	    121.83530148	     24.89267228	     44.56138130
      0.06666670	     -8.34249949	      0.08365924	     -2.42790530	      0.60445369	      0.91073568	     -0.16297776	     10.46953551	     -4.28339642	     -5.30330879	      6.51802510	      4.61617473	      2.27087974	      0.00000000	      8.41688401	     -5.86295060	     -7.08891068	      1.27250050	      2.85980285	      9.89743593	      0.00000000	      3.98513915	      0.71874663	     -0.80545632	    174.92729647	    -30.38571287	    101.09862741	     36.78208119	     43.42145276	    180.70032763	    -31.93251380	    121.80526128	     24.89488611	     44.64596300
      0.08333330	     -8.37174654	      0.20116909	     -2.60147779	      0.60661489	      0.91175158	     -0.16327622	     10.21527958	     -4.35254810	     -5.30652705	      6.17866642	      4.64613395	      2.36075299	      0.00000000	      8.36600626	     -5.74961313	     -7.21002776	      1.22605843	      2.83632437	      9.91953854	      0.00000000	      4.20100136	      0.65678829	     -0.75220058	    174.84033106	    -30.68896346	    101.15619644	     36.76238065	     43.50703738	    180.77420167	    -32.33184263	    121.81991627	     24.87581128	     44.66248750
      0.10000000	     -8.25863307	      0.34089715	     -2.88231347	      0.61150407	      0.91258373	     -0.16073029	      9.71507316	     -4.40143841	     -5.14841051	      5.62393416	      4.37665849	      2.95043136	      0.00000000	      7.95503827	     -5.65890738	     -7.70685739	      1.00130273	      2.68785547	     10.13168644	      0.00000000	      4.58276592	      0.55409045	     -0.75097880	    174.43177007	    -30.83964461	    101.41100315	     37.23063402	     43.84360036	    180.50979834	    -32.81412486	    121.95743740	     25.57349238	     44.73476174
      0.11666670	     -8.07103169	      0.39632157	     -2.91446707	      0.61384564	      0.91412595	     -0.16035815	      9.18867816	     -4.43983503	     -5.51871950	      5.27562017	      4.03593595	      3.26168665	      0.00000000	      7.54421531	     -5.60404377	     -8.07767389	      0.87416446	      2.42795123	     10.51094949	      0.00000000	      4.82656943	      0.55833602	     -0.75295759	    174.09692949	    -31.20415296	    101.62549705	     37.83072069	     44.21889845	    180.05990991	    -33.39915122	    122.17131127	     26.51728823	     44.80487225
      0.13333330	     -8.08277565	      0.43527597	     -2.99718038	      0.61414208	      0.91495635	     -0.16010577	      9.12866206	     -4.42770311	     -5.52683336	      5.29846528	      4.03204896	      3.26621369	      0.00000000	      7.44585444	     -5.61121729	     -8.06851056	      0.94690966	      2.42578422	     10.52244883	      0.00000000	      4.94249048	      0.55128072	     -0.79540628	    174.14211264	    -31.22346040	    101.61739236	     37.83254565	     44.22596928	    180.06147916	    -33.41880592	    122.17246577	     26.52712726	     44.80483541
      0.15000000	     -8.09498074	      0.46678887	     -3.05527892	      0.61581578	      0.91243651	     -0.15965280	      9.04683246	     -4.43086009	     -5.53344472	      5.29923663	      4.02551994	      3.27352808	      0.00000000	      7.35977897	     -5.60983173	     -8.07410564	      1.00273031	      2.42922782	     10.52894664	      0.00000000	      5.05421589	      0.55689230	     -0.82373488	    174.17785283	    -31.21384817	    101.60840585	     37.84163833	     44.23305487	    180.06527880	    -33.40106247	    122.17121988	     26.54073339	     44.80441898
      0.16666670	     -8.07130011	      0.57687965	     -3.13294367	      0.61852829	      0.91417941	     -0.15894686	      8.69564088	     -4.46947406	     -5.44956668	      4.87646985	      3.93910082	      3.46383076	      0.00000000	      7.18320840	     -5.53278399	     -8.25893121	      1.03001156	      2.46187477	     10.57688542	      0.00000000	      5.23787102	      0.46303057	     -0.95458750	    174.09281102	    -30.96952055	    101.61425751	     38.09618244	     44.31442878	    179.95167195	    -33.21741247	    122.17828201	     26.63885642	     44.79809955
      0.18333330	     -8.08783271	      0.60060649	     -3.19590191	      0.62076421	      0.91334931	     -0.15836044	      8.56146327	     -4.46057283	     -5.46138019	      4.92576021	      3.92506734	      3.47172094	      0.00000000	      7.08740174	     -5.54270148	     -8.26815050	      1.11177908	      2.45131353	     10.58345570	      0.00000000	      5.39090156	      0.45374570	     -0.98992265	    174.13772440	    -30.93649075	    101.60057947	     38.11068551	     44.31955715	    179.95889589	    -33.18496188	    122.17486074	     26.63774425	     44.79671945
      0.20000000	     -7.82591517	      0.54164886	     -3.36663747	      0.62410767	      0.91244872	     -0.15804400	      7.79450169	     -4.36396844	     -5.70229255	      4.30308749	      3.49078193	      3.90090788	      0.00000000	      6.56592339	     -5.64293149	     -8.87631595	      1.11871590	      2.56788381	     10.71778914	      0.00000000	      5.50534040	      0.56535289	     -1.13194315	    173.67838119	    -30.51246519	    101.60514170	     38.41750220	     44.48904877	    179.41166311	    -32.91980558	    122.35054457	     26.30110620	     44.76781386
      0.21666670	     -7.85059535	      0.55604775	     -3.49573317	      0.62577964	      0.91020309	     -0.15732686	      7.61883795	     -4.34094119	     -5.80331692	      4.19582083	      3.57568706	      3.90272425	      0.00000000	      6.43120032	     -5.65420848	     -8.87636604	      1.12998308	      2.63741347	     10.77266856	      0.00000000	      5.67361349	      0.56447955	     -1.06214893	    173.66368926	    -30.12801811	    101.55927361	     38.47762312	     44.51720580	    179.38622847	    -32.58754575	    122.36481712	     26.19641117	     44.75816282
      0.23333330	     -7.47390837	      0.51527708	     -3.64065377	      0.62820812	      0.90632997	     -0.15712953	      6.89862479	     -4.30607150	     -6.37444641	      3.85002850	      4.14303594	      4.97321346	      0.00000000	      5.76313845	     -5.70521182	     -9.50069858	      0.99538041	      3.18406241	     11.69448376	      0.00000000	      5.96678246	      0.76334171	     -0.83459726	    172.43641344	    -28.75350822	    101.56871224	     36.16252419	     44.93684302	    177.10291594	    -31.43513049	    123.86986732	     21.66418711	     44.49373971
      0.25000000	     -7.56445088	      0.52745269	     -3.73959915	      0.62810898	      0.90846607	     -0.15612931	      6.78319364	     -4.27243535	     -6.39246966	      3.57843074	      4.24460771	      4.95385596	      0.00000000	      5.72774644	     -5.74389401	     -9.56671784	      0.98348136	      3.30926320	     11.61126091	      0.00000000	      6.12637146	      0.71425204	     -0.80984749	    172.40059639	    -28.49773185	    101.56835510	     36.22909598	     44.95518008	    177.06463328	    -31.20117259	    123.89079963	     21.64961505	     44.48005409
      0.26666670	     -7.58868612	      0.53188749	     -3.79377058	      0.63041066	      0.90989105	     -0.15631025	      6.73282534	     -4.24529387	     -6.40111569	      3.54034458	      4.25552262	      4.95415729	      0.00000000	      5.63513354	     -5.78161468	     -9.57777301	      1.02435527	      3.33302279	     11.59583148	      0.00000000	      6.23891051	      0.66019626	     -0.83144858	    172.41466547	    -28.46714854	    101.56769424	     36.23468923	     44.95764107	    177.05046773	    -31.21124319	    123.90005977	     21.62951029	     44.47729269
      0.28333330	     -7.59909070	      0.47896301	     -3.91005635	      0.63177109	      0.90748666	     -0.15591525	      6.30432223	     -4.14734278	     -6.65115195	      2.84886558	      4.42436988	      5.51874553	      0.00000000	      5.39310638	     -5.84208083	     -9.86783696	      0.85670027	      3.67691393	     11.64691814	      0.00000000	      7.18464742	      0.99819534	     -0.77340027	    170.81944293	    -27.48743092	    102.17642512	     35.55732877	     45.11049010	    174.84434804	    -31.33195631	    125.15629682	     19.56528790	     44.17990256
      0.30000000	     -7.61728280	      0.47927376	     -4.00313261	      0.63293544	      0.90796337	     -0.15539788	      6.28316287	     -4.11929614	     -6.67149042	      2.79006778	      4.42534170	      5.51855914	      0.00000000	      5.34458495	     -5.89488853	     -9.86202771	      0.87709411	      3.70602619	     11.63781261	      0.00000000	      7.24415232	      0.90852041	     -0.76111659	    170.82229281	    -27.45761283	    102.17903708	     35.56004259	     45.11156705	    174.85859940	    -31.34564820	    125.16105933	     19.54449883	     44.17554496
